<?xml version="1.0" encoding="UTF-8"?>
<svg width="752pt" height="752pt" version="1.1" viewBox="0 0 752 752" xmlns="http://www.w3.org/2000/svg">
 <g>
  <path d="m374.11 417.68v-93.77c0-15.156 12.312-26.52 26.52-26.52h1.8945c14.207 0.94531 25.574 13.262 25.574 27.469v47.359c3.7891-1.8945 7.5781-2.8398 11.367-2.8398h0.94531c4.7344 0 9.4727 1.8945 13.262 4.7344 21.785-23.68 35.047-55.883 35.047-90.926 0-45.465-22.73-85.246-56.828-109.87-21.789-15.16-49.254-24.629-78.617-24.629-74.824 0-135.45 60.617-135.45 135.44 0 29.363 9.4727 56.828 25.574 78.613 24.625 34.098 64.406 56.828 109.87 56.828 7.5781 0.003906 14.207-0.94141 20.836-1.8906zm-62.512-215.95c10.418-9.4727 23.68-15.156 39.781-15.156s29.363 4.7344 38.832 13.262c10.418 8.5234 15.156 20.836 15.156 35.992 0 6.6289-0.94531 12.312-2.8398 15.156-1.8945 3.7891-2.8398 5.6836-3.7891 7.5781-0.94531 1.8945-1.8945 3.7891-4.7344 6.6289s-3.7891 4.7344-4.7344 5.6836c-3.7891 3.7891-8.5234 8.5234-11.367 11.367-3.7891 3.7891-6.6289 6.6289-7.5781 8.5234-0.94531 1.8945-1.8945 5.6836-1.8945 10.418v15.156h-38.832v-18.941c0-6.6289 0.94531-12.312 2.8398-16.102 1.8945-3.7891 5.6836-8.5234 11.367-14.207l17.996-17.996c2.8398-2.8398 3.7891-7.5781 3.7891-12.312 0-4.7344-0.94531-8.5234-3.7891-12.312-2.8398-2.8398-6.6289-4.7344-10.418-4.7344-4.7344 0-8.5234 1.8945-11.367 5.6836-2.8398 3.7891-4.7344 8.5234-5.6836 15.156h-40.727c0.94531-16.109 7.5742-29.371 17.992-38.844zm22.734 164.81c-4.7344-4.7344-6.6289-9.4727-6.6289-16.102 0-6.6289 1.8945-11.367 6.6289-16.102s9.4727-6.6289 16.102-6.6289c6.6289 0 11.367 1.8945 16.102 6.6289s6.6289 9.4727 6.6289 16.102c0 6.6289-2.8398 12.312-6.6289 16.102-4.7344 4.7344-9.4727 6.6289-16.102 6.6289-6.6328 0-12.316-1.8945-16.102-6.6289z"/>
  <path d="m520.92 403.47c-1.8945-0.94531-3.7891-0.94531-5.6836-0.94531-9.4727 0.94531-16.102 8.5234-16.102 17.996v35.992h-3.7891v-45.465c0-9.4727-6.6289-17.996-16.102-17.996-10.418-0.94531-17.996 7.5781-17.996 17.051v46.41h-3.7891v-59.672c0-9.4727-6.6289-17.996-16.102-17.996-10.418-0.94531-17.996 7.5781-17.996 17.051v60.617h-3.7891v-130.71c0-9.4727-7.5781-17.996-16.102-17.996-10.418-0.94531-17.996 7.5781-17.996 17.051v155.33l-21.785-30.309c-7.5781-9.4727-20.836-12.312-30.309-4.7344s-12.312 20.836-4.7344 30.309l74.824 116.5c3.7891 5.6836 10.418 10.418 17.051 11.367h3.7891 10.418l79.562-1.8945c8.5234 0 15.156-5.6836 17.051-14.207 2.8398-13.262 4.7344-27.469 4.7344-40.727l-0.003907-125.97c-1.8945-8.5273-7.5742-15.156-15.152-17.051z"/>
 </g>
</svg>
