<svg xmlns="http://www.w3.org/2000/svg" width="325.632" height="74.667" viewBox="0 0 325.632 74.667">
  <g id="Group_6" data-name="Group 6" transform="translate(-10.15 -22.389)">
    <g id="Group_1" data-name="Group 1" transform="translate(10.15 22.39)">
      <path id="Path_1" data-name="Path 1" d="M707.692,227.27l4.681,12.7,11.144-10.03Z" transform="translate(-580.203 -189.826)" fill="#f06015"/>
      <path id="Path_2" data-name="Path 2" d="M718.168,176.052l-10.476,9.361,15.825,2.674Z" transform="translate(-580.203 -147.968)" fill="#f06015"/>
      <path id="Path_3" data-name="Path 3" d="M782.172,185.413l-17.162-9.361,5.349,12.035Z" transform="translate(-627.047 -147.968)" fill="#f06015"/>
      <path id="Path_4" data-name="Path 4" d="M810.773,233.622l-16.494-3.677,11.812-2.674Z" transform="translate(-650.966 -189.826)" fill="#f06015"/>
      <path id="Path_5" data-name="Path 5" d="M733.3,251.931l12.259,4.457L744.448,241.9Z" transform="translate(-601.135 -201.782)" fill="#f06015"/>
      <path id="Path_6" data-name="Path 6" d="M795.394,256.388l15.379-10.81L794.279,241.9Z" transform="translate(-650.966 -201.782)" fill="#f06015"/>
      <path id="Path_7" data-name="Path 7" d="M665.35,131.2l-22.288-10.03,11.812,19.391Z" transform="translate(-527.386 -103.119)" fill="#f06015"/>
      <path id="Path_8" data-name="Path 8" d="M618,140.564,606.19,121.173l-8.246,16.047Z" transform="translate(-490.514 -103.119)" fill="#f06015"/>
      <path id="Path_9" data-name="Path 9" d="M622.683,225.023l-24.74-16.048L618,212.319Z" transform="translate(-490.514 -174.874)" fill="#f06015"/>
      <path id="Path_10" data-name="Path 10" d="M704.7,301.237l-21.4,6.687,9.138-11.144Z" transform="translate(-560.276 -246.631)" fill="#f06015"/>
      <path id="Path_11" data-name="Path 11" d="M514.229,137.22l-18.722-16.047h26.968Z" transform="translate(-406.799 -103.119)" fill="#f06015"/>
      <path id="Path_12" data-name="Path 12" d="M443.066,138.335l9.585-17.162,18.722,16.047Z" transform="translate(-363.943 -103.119)" fill="#f06015"/>
      <path id="Path_13" data-name="Path 13" d="M457.219,225.023,443.066,210.09l28.307-1.115Z" transform="translate(-363.943 -174.874)" fill="#f06015"/>
      <path id="Path_14" data-name="Path 14" d="M559.4,225.023H520.5l14.153-16.048Z" transform="translate(-427.228 -174.874)" fill="#f06015"/>
      <path id="Path_15" data-name="Path 15" d="M550.26,307.924,520.5,296.78H559.4Z" transform="translate(-427.228 -246.631)" fill="#f06015"/>
      <path id="Path_16" data-name="Path 16" d="M317.46,129.754,350,121.173l-9.585,17.162Z" transform="translate(-261.294 -103.119)" fill="#f06015"/>
      <path id="Path_17" data-name="Path 17" d="M233.317,175.592l15.379-7.466,22.957,8.581Z" transform="translate(-192.529 -141.491)" fill="#f06015"/>
      <path id="Path_18" data-name="Path 18" d="M233.317,208.975l52.489,16.048L271.652,210.09Z" transform="translate(-192.529 -174.874)" fill="#f06015"/>
      <path id="Path_19" data-name="Path 19" d="M481.14,296.78l-8.8,10.03,38.559,1.114Z" transform="translate(-387.864 -246.631)" fill="#f06015"/>
      <path id="Path_20" data-name="Path 20" d="M163.3,250.886l22.321-4.9L158.278,244.3Z" transform="translate(-131.205 -203.747)" fill="#f06015"/>
      <path id="Path_21" data-name="Path 21" d="M233.317,208.975l43.658,26.119,8.831-10.071Z" transform="translate(-192.529 -174.874)" fill="#f06015"/>
      <path id="Path_22" data-name="Path 22" d="M171.121,208.975h11.367l13.628,8.135Z" transform="translate(-141.701 -174.874)" fill="#f06015"/>
      <path id="Path_23" data-name="Path 23" d="M160.656,208.975l-2.34,6.464,27.336,1.671Z" transform="translate(-131.236 -174.874)" fill="#f06015"/>
      <path id="Path_24" data-name="Path 24" d="M185.7,258.369,210.5,269.356l-2.458-15.888Z" transform="translate(-153.619 -211.235)" fill="#f06015"/>
      <path id="Path_25" data-name="Path 25" d="M337.913,271.471l-27.582-2.1-2.447-15.88Z" transform="translate(-253.467 -211.251)" fill="#f06015"/>
      <path id="Path_26" data-name="Path 26" d="M481.14,296.78l-8.8,10.03,13.926.4Z" transform="translate(-387.864 -246.631)" fill="#f06015"/>
      <path id="Path_27" data-name="Path 27" d="M443.066,359.625l5.35-7.968,13.926.4Z" transform="translate(-363.943 -291.478)" fill="#f06015"/>
      <path id="Path_28" data-name="Path 28" d="M445.462,367.943l-2.4-6.519,19.276-7.566Z" transform="translate(-363.943 -293.277)" fill="#f06015"/>
      <path id="Path_29" data-name="Path 29" d="M241.162,304.872l-16.187,7.021-1.729-14.961Z" transform="translate(-184.299 -246.756)" fill="#f06015"/>
      <path id="Path_30" data-name="Path 30" d="M307.094,253.487" transform="translate(-252.822 -211.251)" fill="#f06015"/>
      <path id="Path_31" data-name="Path 31" d="M54.519,131.243,28.441,113.858l23.737,23.848Z" transform="translate(-25.098 -97.142)" fill="#f06015"/>
      <path id="Path_32" data-name="Path 32" d="M37.23,244.343,10.15,263.176l32.095-12.259Z" transform="translate(-10.15 -203.778)" fill="#f06015"/>
      <path id="Path_33" data-name="Path 33" d="M28.441,113.858l13.611,30.89,10.126-7.042Z" transform="translate(-25.098 -97.142)" fill="#f06015"/>
      <path id="Path_34" data-name="Path 34" d="M522.475,40.448,495.507,22.395V40.448Z" transform="translate(-406.799 -22.395)" fill="#f06015"/>
      <path id="Path_35" data-name="Path 35" d="M349.166,31.422l26.746-9.027V40.448Z" transform="translate(-287.205 -22.395)" fill="#f06015"/>
      <path id="Path_36" data-name="Path 36" d="M456.176,367.943l25.91-13.824-9.031-.261Z" transform="translate(-374.657 -293.277)" fill="#f06015"/>
      <path id="Path_37" data-name="Path 37" d="M232.706,347.4l23.966-6.44-7.779-.58Z" transform="translate(-192.03 -282.259)" fill="#f06015"/>
      <path id="Path_38" data-name="Path 38" d="M223.246,296.932l1.729,14.961,5.457-11.777Z" transform="translate(-184.299 -246.756)" fill="#f06015"/>
      <path id="Path_39" data-name="Path 39" d="M495.507,22.395l17.552,18.053h9.416Z" transform="translate(-406.799 -22.395)" fill="#f06015"/>
    </g>
    <path id="Path_40" data-name="Path 40" d="M707.693,227.265l4.681,12.7,11.144-10.03Z" transform="translate(-570.055 -167.431)" fill="#1e1720"/>
    <path id="Path_41" data-name="Path 41" d="M718.169,176.046l-10.476,9.361,15.825,2.674Z" transform="translate(-570.055 -125.573)" fill="#b9081d"/>
    <path id="Path_42" data-name="Path 42" d="M782.174,185.407l-17.162-9.361,5.349,12.035Z" transform="translate(-616.898 -125.573)" fill="#a60f1c"/>
    <path id="Path_43" data-name="Path 43" d="M810.775,233.616l-16.493-3.677,11.812-2.674Z" transform="translate(-640.818 -167.431)" fill="#c9151c"/>
    <path id="Path_44" data-name="Path 44" d="M733.306,251.925l12.258,4.458L744.45,241.9Z" transform="translate(-590.986 -179.387)" fill="#ef6519"/>
    <path id="Path_45" data-name="Path 45" d="M795.4,256.383l15.379-10.81L794.281,241.9Z" transform="translate(-640.818 -179.387)" fill="#de241a"/>
    <path id="Path_46" data-name="Path 46" d="M665.351,131.2l-22.288-10.03,11.812,19.391Z" transform="translate(-517.237 -80.724)" fill="#a50f1c"/>
    <path id="Path_47" data-name="Path 47" d="M618,140.558l-11.812-19.391-8.246,16.047Z" transform="translate(-480.365 -80.724)" fill="#cc1f1b"/>
    <path id="Path_48" data-name="Path 48" d="M622.685,225.017l-24.74-16.048L618,212.313Z" transform="translate(-480.365 -152.479)" fill="#f06015"/>
    <path id="Path_49" data-name="Path 49" d="M704.705,301.231l-21.4,6.687,9.138-11.144Z" transform="translate(-550.127 -224.236)" fill="#ef6519"/>
    <path id="Path_50" data-name="Path 50" d="M514.231,137.214l-18.722-16.047h26.968Z" transform="translate(-396.651 -80.724)" fill="#be1d1c"/>
    <path id="Path_51" data-name="Path 51" d="M443.068,138.329l9.584-17.162,18.722,16.047Z" transform="translate(-353.795 -80.724)" fill="#cf161b"/>
    <path id="Path_52" data-name="Path 52" d="M457.221,225.017l-14.153-14.933,28.307-1.115Z" transform="translate(-353.795 -152.479)" fill="#fc911f"/>
    <path id="Path_53" data-name="Path 53" d="M559.4,225.017H520.507l14.153-16.048Z" transform="translate(-417.081 -152.479)" fill="#ffa621"/>
    <path id="Path_54" data-name="Path 54" d="M550.262,307.918l-29.755-11.144H559.4Z" transform="translate(-417.081 -224.236)" fill="#fda340"/>
    <path id="Path_55" data-name="Path 55" d="M317.462,129.748,350,121.167l-9.584,17.162Z" transform="translate(-251.146 -80.724)" fill="#c10e1d"/>
    <path id="Path_56" data-name="Path 56" d="M233.319,175.586,248.7,168.12l22.957,8.581Z" transform="translate(-182.381 -119.096)" fill="#cc1f1b"/>
    <path id="Path_57" data-name="Path 57" d="M233.319,208.969l52.489,16.048-14.153-14.933Z" transform="translate(-182.381 -152.479)" fill="#ffa621"/>
    <path id="Path_58" data-name="Path 58" d="M481.143,296.773l-8.8,10.03,38.559,1.115Z" transform="translate(-377.716 -224.236)" fill="#ffb159"/>
    <path id="Path_59" data-name="Path 59" d="M163.3,250.881l22.321-4.9L158.28,244.3Z" transform="translate(-121.057 -181.352)" fill="#b1151c"/>
    <path id="Path_60" data-name="Path 60" d="M233.319,208.969l43.658,26.119,8.831-10.071Z" transform="translate(-182.381 -152.479)" fill="#fda340"/>
    <path id="Path_61" data-name="Path 61" d="M171.123,208.969h11.367l13.628,8.135Z" transform="translate(-131.553 -152.479)" fill="#e2171a"/>
    <path id="Path_62" data-name="Path 62" d="M160.658,208.969l-2.34,6.464,27.336,1.671Z" transform="translate(-121.088 -152.479)" fill="#ca161c"/>
    <path id="Path_63" data-name="Path 63" d="M185.707,258.363,210.5,269.35l-2.458-15.888Z" transform="translate(-143.471 -188.84)" fill="#fda340"/>
    <path id="Path_64" data-name="Path 64" d="M337.915,271.465l-27.582-2.1-2.447-15.88Z" transform="translate(-243.319 -188.856)" fill="#fc911f"/>
    <path id="Path_65" data-name="Path 65" d="M481.143,296.773l-8.8,10.03,13.926.4Z" transform="translate(-377.716 -224.236)" fill="#a60f1c"/>
    <path id="Path_66" data-name="Path 66" d="M443.068,359.618l5.35-7.968,13.926.4Z" transform="translate(-353.795 -269.083)" fill="#c10e1d"/>
    <path id="Path_67" data-name="Path 67" d="M445.464,367.937l-2.4-6.519,19.276-7.566Z" transform="translate(-353.795 -270.882)" fill="#de241a"/>
    <path id="Path_68" data-name="Path 68" d="M241.164,304.866l-16.187,7.021-1.729-14.961Z" transform="translate(-174.15 -224.36)" fill="#a60f1c"/>
    <path id="Path_69" data-name="Path 69" d="M307.1,253.481" transform="translate(-242.674 -188.856)" fill="#a60f1c"/>
    <path id="Path_70" data-name="Path 70" d="M54.521,131.237,28.443,113.853,52.18,137.7Z" transform="translate(-14.95 -74.747)" fill="#e72818"/>
    <path id="Path_71" data-name="Path 71" d="M37.232,244.337l-27.08,18.834,32.095-12.259Z" transform="translate(-0.002 -181.383)" fill="#840f18"/>
    <path id="Path_72" data-name="Path 72" d="M28.443,113.853l13.611,30.89L52.18,137.7Z" transform="translate(-14.95 -74.747)" fill="#ea5245"/>
    <path id="Path_73" data-name="Path 73" d="M522.477,40.443,495.509,22.389V40.443Z" transform="translate(-396.651)" fill="#a60f1c"/>
    <path id="Path_74" data-name="Path 74" d="M349.168,31.416l26.746-9.027V40.443Z" transform="translate(-277.057)" fill="#c10e1d"/>
    <path id="Path_75" data-name="Path 75" d="M456.178,367.937l25.91-13.824-9.031-.261Z" transform="translate(-364.509 -270.882)" fill="#ea5245"/>
    <path id="Path_76" data-name="Path 76" d="M232.708,347.39l23.966-6.44-7.779-.581Z" transform="translate(-181.881 -259.863)" fill="#de241a"/>
    <path id="Path_77" data-name="Path 77" d="M223.248,296.926l1.729,14.961,5.457-11.777Z" transform="translate(-174.15 -224.36)" fill="#840f18"/>
    <path id="Path_78" data-name="Path 78" d="M495.509,22.389l17.552,18.053h9.416Z" transform="translate(-396.651)" fill="#840f18"/>
    <g id="Group_3" data-name="Group 3" transform="translate(178.514 51.304)">
      <g id="Group_2" data-name="Group 2">
        <path id="Path_79" data-name="Path 79" d="M931.343,184.8v-3.356h12.731V184.8h-4.426v11.873h-3.924V184.8Z" transform="translate(-931.343 -181.293)" fill="#1a1818"/>
        <path id="Path_80" data-name="Path 80" d="M1017.3,190.122v-8.673h3.924V190.6a3.2,3.2,0,0,0,.63,2.173,3.046,3.046,0,0,0,3.907,0,3.218,3.218,0,0,0,.624-2.173v-9.147h3.924v8.673a6.8,6.8,0,0,1-1.712,4.955,7.421,7.421,0,0,1-9.587,0A6.8,6.8,0,0,1,1017.3,190.122Z" transform="translate(-1001.591 -181.293)" fill="#1a1818"/>
        <path id="Path_81" data-name="Path 81" d="M1112.836,196.678V181.449h3.924l6.187,9.131v-9.131h3.924v15.229H1123l-6.243-9.064v9.064Z" transform="translate(-1079.665 -181.293)" fill="#1a1818"/>
        <path id="Path_82" data-name="Path 82" d="M1208.371,196.678l6.053-15.229h3.7l6.042,15.229h-4.225l-1.182-3.657h-4.983l-1.182,3.657Zm6.343-6.555h3.088l-1.528-4.727Z" transform="translate(-1157.739 -181.293)" fill="#1a1818"/>
        <path id="Path_83" data-name="Path 83" d="M1353.508,188.366a10.57,10.57,0,0,1,.643-3.913,5.3,5.3,0,0,1,1.738-2.4,7.154,7.154,0,0,1,2.251-1.124,9.24,9.24,0,0,1,2.531-.328,12.658,12.658,0,0,1,5.246,1.137v3.155a12.283,12.283,0,0,0-4.656-.936q-3.828,0-3.828,4.415a4.711,4.711,0,0,0,1,3.454,3.725,3.725,0,0,0,2.693.961,5.278,5.278,0,0,0,2.092-.34v-2.559h-2.709v-2.9h5.842v7.7a11.054,11.054,0,0,1-5.681,1.451,10.766,10.766,0,0,1-2.011-.179,6.562,6.562,0,0,1-1.911-.709,5.763,5.763,0,0,1-1.67-1.362,6.386,6.386,0,0,1-1.134-2.25A11.149,11.149,0,0,1,1353.508,188.366Z" transform="translate(-1276.35 -180.595)" fill="#1a1818"/>
        <path id="Path_84" data-name="Path 84" d="M1446.3,196.678V181.449h6a7.09,7.09,0,0,1,4.461,1.3,4.353,4.353,0,0,1,1.676,3.651,5.031,5.031,0,0,1-.834,2.988,4.324,4.324,0,0,1-2.223,1.632l3.679,5.659h-4.379l-2.831-5.061h-1.628v5.061Zm3.924-8.038h2.33a1.926,1.926,0,0,0,1.383-.557,1.894,1.894,0,0,0,.58-1.427,1.943,1.943,0,0,0-1.962-2.007h-2.33Z" transform="translate(-1352.182 -181.293)" fill="#1a1818"/>
        <path id="Path_85" data-name="Path 85" d="M1530.556,191.621a12.486,12.486,0,0,1,0-6.533,6.384,6.384,0,0,1,1.132-2.246,5.753,5.753,0,0,1,1.667-1.36,6.553,6.553,0,0,1,1.906-.708,11.39,11.39,0,0,1,4.014,0,6.553,6.553,0,0,1,1.906.708,5.749,5.749,0,0,1,1.667,1.36,6.384,6.384,0,0,1,1.132,2.246,12.49,12.49,0,0,1,0,6.533,6.379,6.379,0,0,1-1.132,2.246,5.746,5.746,0,0,1-1.667,1.36,6.537,6.537,0,0,1-1.906.708,11.377,11.377,0,0,1-4.014,0,6.537,6.537,0,0,1-1.906-.708,5.75,5.75,0,0,1-1.667-1.36A6.379,6.379,0,0,1,1530.556,191.621Zm4.37-6.711a7.177,7.177,0,0,0,0,6.89,3.338,3.338,0,0,0,4.682,0,7.175,7.175,0,0,0,0-6.89,3.338,3.338,0,0,0-4.682,0Z" transform="translate(-1420.684 -180.595)" fill="#1a1818"/>
        <path id="Path_86" data-name="Path 86" d="M1628.768,190.122v-8.673h3.924V190.6a3.2,3.2,0,0,0,.63,2.173,3.046,3.046,0,0,0,3.907,0,3.218,3.218,0,0,0,.624-2.173v-9.147h3.924v8.673a6.8,6.8,0,0,1-1.712,4.955,7.421,7.421,0,0,1-9.587,0A6.8,6.8,0,0,1,1628.768,190.122Z" transform="translate(-1501.301 -181.293)" fill="#1a1818"/>
        <path id="Path_87" data-name="Path 87" d="M1723.753,196.678V181.449h6.177a6.126,6.126,0,0,1,4.3,1.4,5.82,5.82,0,0,1,0,7.869,6.158,6.158,0,0,1-4.3,1.4h-2.247v4.56Zm3.924-7.759h1.873a2.044,2.044,0,0,0,2.286-2.129,2.246,2.246,0,0,0-.547-1.494,2.154,2.154,0,0,0-1.739-.647h-1.873Z" transform="translate(-1578.926 -181.293)" fill="#1a1818"/>
      </g>
    </g>
    <g id="Group_5" data-name="Group 5" transform="translate(178.467 74.465)">
      <g id="Group_4" data-name="Group 4">
        <path id="Path_88" data-name="Path 88" d="M931.085,310.673q0-3.355,3.038-3.355a5.306,5.306,0,0,1,1.994.379v.681a4.9,4.9,0,0,0-1.917-.393,2.335,2.335,0,0,0-1.826.647,3.883,3.883,0,0,0,0,4.083,2.336,2.336,0,0,0,1.826.647,4.912,4.912,0,0,0,1.917-.383v.68a5.334,5.334,0,0,1-1.97.369h-.024Q931.085,314.027,931.085,310.673Z" transform="translate(-931.085 -307.318)" fill="#1a1818"/>
        <path id="Path_89" data-name="Path 89" d="M964.25,311.647v-3.858h.709v3.9q0,2.08,1.953,2.08t1.953-2.08v-3.9h.709v3.858a2.83,2.83,0,0,1-.69,2.056,3.1,3.1,0,0,1-3.947,0A2.838,2.838,0,0,1,964.25,311.647Z" transform="translate(-958.189 -307.703)" fill="#1a1818"/>
        <path id="Path_90" data-name="Path 90" d="M999.748,309.139a1.728,1.728,0,0,1,.549-1.289,2.38,2.38,0,0,1,1.71-.532,3.736,3.736,0,0,1,1.639.388v.729a3.138,3.138,0,0,0-1.572-.412,2.1,2.1,0,0,0-1.2.288.945.945,0,0,0-.416.829.7.7,0,0,0,.27.561,1.739,1.739,0,0,0,.668.333q.4.107.87.276a7.872,7.872,0,0,1,.868.364,1.705,1.705,0,0,1,.667.609,1.783,1.783,0,0,1,.271,1,1.517,1.517,0,0,1-.614,1.28,2.781,2.781,0,0,1-1.712.465,4.076,4.076,0,0,1-1.938-.46V312.8a3.3,3.3,0,0,0,1.886.523q1.665,0,1.67-1.04a1.064,1.064,0,0,0-.271-.74,1.588,1.588,0,0,0-.667-.438l-.866-.288q-.469-.153-.868-.312a1.574,1.574,0,0,1-.67-.506A1.354,1.354,0,0,1,999.748,309.139Z" transform="translate(-987.199 -307.318)" fill="#1a1818"/>
        <path id="Path_91" data-name="Path 91" d="M1025.649,308.474v-.685h5.324v.685h-2.305v5.861h-.709v-5.861Z" transform="translate(-1008.366 -307.703)" fill="#1a1818"/>
        <path id="Path_92" data-name="Path 92" d="M1056.272,310.673q0-3.355,3.036-3.355t3.041,3.355q0,3.355-3.041,3.355T1056.272,310.673Zm1.269-2.042a4,4,0,0,0,0,4.083,2.745,2.745,0,0,0,3.54,0,4.016,4.016,0,0,0,0-4.083,2.745,2.745,0,0,0-3.54,0Z" transform="translate(-1033.392 -307.318)" fill="#1a1818"/>
        <path id="Path_93" data-name="Path 93" d="M1095.939,314.335v-6.546h.767l2.248,3.326,2.257-3.326h.767v6.546h-.709v-5.387l-2.315,3.336-2.305-3.336v5.387Z" transform="translate(-1065.809 -307.703)" fill="#1a1818"/>
        <path id="Path_94" data-name="Path 94" d="M1152.461,309.139a1.728,1.728,0,0,1,.549-1.289,2.38,2.38,0,0,1,1.71-.532,3.736,3.736,0,0,1,1.639.388v.729a3.138,3.138,0,0,0-1.572-.412,2.1,2.1,0,0,0-1.2.288.946.946,0,0,0-.416.829.7.7,0,0,0,.27.561,1.739,1.739,0,0,0,.668.333q.4.107.87.276a7.868,7.868,0,0,1,.868.364,1.7,1.7,0,0,1,.667.609,1.784,1.784,0,0,1,.271,1,1.517,1.517,0,0,1-.614,1.28,2.782,2.782,0,0,1-1.712.465,4.076,4.076,0,0,1-1.939-.46V312.8a3.3,3.3,0,0,0,1.886.523q1.665,0,1.67-1.04a1.064,1.064,0,0,0-.271-.74,1.589,1.589,0,0,0-.667-.438l-.866-.288q-.469-.153-.868-.312a1.575,1.575,0,0,1-.67-.506A1.354,1.354,0,0,1,1152.461,309.139Z" transform="translate(-1112.001 -307.318)" fill="#1a1818"/>
        <path id="Path_95" data-name="Path 95" d="M1180.25,310.673q0-3.355,3.036-3.355t3.041,3.355q0,3.355-3.041,3.355T1180.25,310.673Zm1.269-2.042a4,4,0,0,0,0,4.083,2.746,2.746,0,0,0,3.541,0,4.016,4.016,0,0,0,0-4.083,2.746,2.746,0,0,0-3.541,0Z" transform="translate(-1134.711 -307.318)" fill="#1a1818"/>
        <path id="Path_96" data-name="Path 96" d="M1219.918,314.335v-6.546h4.016v.666h-3.307v2.262h2.9v.685h-2.9v2.933Z" transform="translate(-1167.129 -307.703)" fill="#1a1818"/>
        <path id="Path_97" data-name="Path 97" d="M1244.43,308.474v-.685h5.324v.685h-2.305v5.861h-.709v-5.861Z" transform="translate(-1187.161 -307.703)" fill="#1a1818"/>
        <path id="Path_98" data-name="Path 98" d="M1275.6,307.789h.709l1.737,5.531,1.742-5.531h.708l1.7,5.434,1.711-5.434h.709l-2.112,6.546h-.648l-1.734-5.394-1.734,5.394h-.688Z" transform="translate(-1212.636 -307.703)" fill="#1a1818"/>
        <path id="Path_99" data-name="Path 99" d="M1324,314.335l2.612-6.546h.7l2.6,6.546h-.757l-.786-2.051h-2.823l-.786,2.051Zm1.816-2.717h2.3l-1.145-3Z" transform="translate(-1252.189 -307.703)" fill="#1a1818"/>
        <path id="Path_100" data-name="Path 100" d="M1360.68,314.335v-6.546h2.406a2.478,2.478,0,0,1,1.644.487,1.751,1.751,0,0,1,.575,1.416,2.1,2.1,0,0,1-.134.767,1.786,1.786,0,0,1-.3.537,1.724,1.724,0,0,1-.405.333,1.836,1.836,0,0,1-.383.187c-.1.031-.192.055-.278.075l1.8,2.746h-.834l-1.706-2.64h-1.668v2.64Zm.709-3.306h1.658a2.534,2.534,0,0,0,.817-.113.959.959,0,0,0,.477-.314,1.21,1.21,0,0,0,.2-.4,2.059,2.059,0,0,0,0-.925,1.213,1.213,0,0,0-.2-.4.959.959,0,0,0-.477-.314,2.55,2.55,0,0,0-.817-.113h-1.658Z" transform="translate(-1282.164 -307.703)" fill="#1a1818"/>
        <path id="Path_101" data-name="Path 101" d="M1392.664,314.335v-6.546h4.131v.666h-3.422v2.262h3.01v.685h-3.01v2.267h3.422v.666Z" transform="translate(-1308.302 -307.703)" fill="#1a1818"/>
        <path id="Path_102" data-name="Path 102" d="M1438.515,314.335v-6.546h2.053q3.075,0,3.075,3.273t-3.075,3.273Zm.709-.666h1.294a2.393,2.393,0,0,0,1.835-.627,3.672,3.672,0,0,0,0-3.961,2.393,2.393,0,0,0-1.835-.627h-1.294Z" transform="translate(-1345.773 -307.703)" fill="#1a1818"/>
        <path id="Path_103" data-name="Path 103" d="M1472.676,314.335v-6.546h4.131v.666h-3.422v2.262h3.01v.685h-3.01v2.267h3.422v.666Z" transform="translate(-1373.691 -307.703)" fill="#1a1818"/>
        <path id="Path_104" data-name="Path 104" d="M1498.734,307.789h.753l2.113,5.535,2.1-5.535h.757l-2.516,6.546h-.695Z" transform="translate(-1394.986 -307.703)" fill="#1a1818"/>
        <path id="Path_105" data-name="Path 105" d="M1534.416,314.335v-6.546h4.131v.666h-3.422v2.262h3.01v.685h-3.01v2.267h3.422v.666Z" transform="translate(-1424.147 -307.703)" fill="#1a1818"/>
        <path id="Path_106" data-name="Path 106" d="M1563.1,314.335v-6.546h.709v5.861h3.345v.685Z" transform="translate(-1447.587 -307.703)" fill="#1a1818"/>
        <path id="Path_107" data-name="Path 107" d="M1588.134,310.673q0-3.355,3.036-3.355t3.041,3.355q0,3.355-3.041,3.355T1588.134,310.673Zm1.269-2.042a4,4,0,0,0,0,4.083,2.746,2.746,0,0,0,3.54,0,4.016,4.016,0,0,0,0-4.083,2.746,2.746,0,0,0-3.54,0Z" transform="translate(-1468.047 -307.318)" fill="#1a1818"/>
        <path id="Path_108" data-name="Path 108" d="M1627.958,314.335v-6.546h2.329a2.465,2.465,0,0,1,1.682.516,1.9,1.9,0,0,1,.585,1.5,1.919,1.919,0,0,1-.585,1.509,2.443,2.443,0,0,1-1.682.523h-1.62v2.5Zm.709-3.182h1.529a2.853,2.853,0,0,0,.87-.113.973.973,0,0,0,.505-.329,1.325,1.325,0,0,0,.216-.423,2.037,2.037,0,0,0,0-.962,1.35,1.35,0,0,0-.216-.426.967.967,0,0,0-.505-.332,2.854,2.854,0,0,0-.87-.113h-1.529Z" transform="translate(-1500.592 -307.703)" fill="#1a1818"/>
        <path id="Path_109" data-name="Path 109" d="M1658.658,314.335v-6.546h.767l2.248,3.326,2.257-3.326h.767v6.546h-.709v-5.387l-2.315,3.336-2.305-3.336v5.387Z" transform="translate(-1525.681 -307.703)" fill="#1a1818"/>
        <path id="Path_110" data-name="Path 110" d="M1699.4,314.335v-6.546h4.131v.666h-3.422v2.262h3.01v.685h-3.01v2.267h3.422v.666Z" transform="translate(-1558.978 -307.703)" fill="#1a1818"/>
        <path id="Path_111" data-name="Path 111" d="M1727.977,314.335v-6.546h.805l3.906,5.516v-5.516h.709v6.546h-.8l-3.916-5.516v5.516Z" transform="translate(-1582.331 -307.703)" fill="#1a1818"/>
        <path id="Path_112" data-name="Path 112" d="M1762.69,308.474v-.685h5.324v.685h-2.3v5.861H1765v-5.861Z" transform="translate(-1610.699 -307.703)" fill="#1a1818"/>
      </g>
    </g>
  </g>
</svg>
